<?xml version="1.0" encoding="utf-8"?>
<!-- Generator: Adobe Illustrator 24.3.0, SVG Export Plug-In . SVG Version: 6.00 Build 0)  -->
<svg version="1.1" id="Layer_1" xmlns="http://www.w3.org/2000/svg" xmlns:xlink="http://www.w3.org/1999/xlink" x="0px"
  y="0px" viewBox="0 0 300 300" style="enable-background:new 0 0 300 300;" xml:space="preserve">
  <style type="text/css">
    .st0 {
      fill: #3777FF;
    }

    .st1 {
      fill: #FFFFFF;
    }
  </style>
  <g>
    <g>
      <path class="st0" d="M150,11.5c-59,0-106.8,47.8-106.8,106.7c0,45.6,63.9,128.4,92.8,163.6c7.3,8.8,20.7,8.8,27.9,0
			c29-35.1,92.8-117.9,92.8-163.6C256.8,59.3,209,11.5,150,11.5z" />
    </g>
  </g>
  <circle class="st1" cx="150" cy="113.3" r="65.7" />
  <g>
    <path fill='black' d="M130.2,152.8v-68c0-3.7,3-6.8,6.8-6.8h18.5c13.9,0,27.4,9.7,27.4,27.1c0,14.1-9.8,27.2-27.4,27.2h-11.6v20.4
		c0,3.7-3,6.8-6.9,6.8C133.2,159.6,130.2,156.5,130.2,152.8z M143.8,118.8h11.6c5.8,0,9.5-2,11.8-6.2c1.9-3.5,2-7.2,2-7.5
		c0-13.9-13.2-13.2-13.7-13.5h-11.6L143.8,118.8L143.8,118.8z" />
  </g>
</svg>