<svg xmlns="http://www.w3.org/2000/svg" xmlns:xlink="http://www.w3.org/1999/xlink" viewBox="0 0 24 30" version="1.1"
  x="0px" y="0px">
  <g stroke="none" stroke-width="1" fill="none" fill-rule="evenodd">
    <g fill-rule="nonzero" fill="#000000">
      <path
        d="M6,8.41421356 L3.70710678,10.7071068 C3.31658249,11.0976311 2.68341751,11.0976311 2.29289322,10.7071068 C1.90236893,10.3165825 1.90236893,9.68341751 2.29289322,9.29289322 L6.29289322,5.29289322 C6.68341751,4.90236893 7.31658249,4.90236893 7.70710678,5.29289322 L11.7071068,9.29289322 C12.0976311,9.68341751 12.0976311,10.3165825 11.7071068,10.7071068 C11.3165825,11.0976311 10.6834175,11.0976311 10.2928932,10.7071068 L8,8.41421356 L8,17.0769231 C8,17.5867244 7.55228475,18 7,18 C6.44771525,18 6,17.5867244 6,17.0769231 L6,8.41421356 Z M16,15.5857864 L16,6.92307692 C16,6.41327562 16.4477153,6 17,6 C17.5522847,6 18,6.41327562 18,6.92307692 L18,15.5857864 L20.2928932,13.2928932 C20.6834175,12.9023689 21.3165825,12.9023689 21.7071068,13.2928932 C22.0976311,13.6834175 22.0976311,14.3165825 21.7071068,14.7071068 L17.7071068,18.7071068 C17.3165825,19.0976311 16.6834175,19.0976311 16.2928932,18.7071068 L12.2928932,14.7071068 C11.9023689,14.3165825 11.9023689,13.6834175 12.2928932,13.2928932 C12.6834175,12.9023689 13.3165825,12.9023689 13.7071068,13.2928932 L16,15.5857864 Z" />
    </g>
  </g>
</svg>