<svg xmlns="http://www.w3.org/2000/svg" xmlns:xlink="http://www.w3.org/1999/xlink" version="1.0" x="0px" y="0px"
  viewBox="0 0 100 125" enable-background="new 0 0 100 100" xml:space="preserve" fill='#8c4799'>
  <path
    d="M47.113842,12.0957232h5.7768555c0.3429642-1.1253614,0.9538765-2.1328268,1.7577057-2.936657V9.1483488  c3.7726402-3.7726398,10.1282539-2.0685215,11.6287346,2.9473743c6.8271866,0,12.4004059,5.5839357,12.4004059,12.4004087  v46.0540695c0,4.5335999-2.4757919,8.5848999-6.2591476,10.7605972l9.238678,8.0811691  c1.9720612,1.7148361-0.6430664,4.7157974-2.6151276,2.990242l-10.9427948-9.5602112H31.9053879l-10.9427986,9.5602112  c-1.9720612,1.7255554-4.5871868-1.2754059-2.625843-2.990242l9.2386799-8.0811691  c-3.7726402-2.1756973-6.2484341-6.2269974-6.2484341-10.7605972V24.4961319c0-6.816473,5.5732174-12.4004087,12.3896904-12.4004087  c1.4897652-4.9837427,7.8346596-6.730732,11.6287346-2.9473743h0.0107155  C46.1599617,9.9628963,46.770874,10.9596443,47.113842,12.0957232z M65.3339767,60.7327652  c-6.162693,0-9.3458595,7.5238419-4.9301567,11.928833l0,0c4.4049873,4.3942642,11.9181099,1.2325363,11.9181099-4.9408722  c0-1.9291916-0.7823868-3.6761856-2.047081-4.940876v0.0107193C68.9994354,61.5151596,67.2631683,60.7327652,65.3339767,60.7327652z   M34.6598434,60.7327652c-1.9291916,0-3.6654625,0.7823944-4.9301548,2.0470848c0,0.0535889-2.0470848,1.7898598-2.0470848,4.940876  c0,5.9697723,7.2237453,9.4423141,11.9181118,4.9408722C43.8985214,68.54599,41.0583267,60.7327652,34.6598434,60.7327652z   M42.5266533,11.9671106c-2.7758904-2.7866087-7.0093918,1.4468927-4.2227821,4.2335024  c0,0.2679424,2.4543571,1.8327312,4.2227821,0C43.7056046,14.9895096,43.6948853,13.1353426,42.5266533,11.9671106  L42.5266533,11.9671106z M61.7006683,11.9671106c-1.1682358-1.168232-3.0652733-1.168232-4.2335052,0l0,0  c-1.1575127,1.168232-1.168232,3.0652695,0,4.2335024v0.0107174C60.3395157,19.0622463,64.4979935,14.6143894,61.7006683,11.9671106  z M60.0179825,28.408102v-0.7609577H40.1580353v0.7609577H60.0179825z M66.3735962,32.4058151H33.8024254  c-1.286129,0-2.282877,1.0932083-2.282877,2.3793335v12.5826111c0,1.286129,0.996748,2.3793373,2.282877,2.3793373h32.5711708  c1.2861252,0,2.2828751-1.0932083,2.2828751-2.3793373V34.7851486  C68.6564713,33.4990234,67.6597214,32.4058151,66.3735962,32.4058151z" />
</svg>