<svg xmlns="http://www.w3.org/2000/svg" xmlns:xlink="http://www.w3.org/1999/xlink" version="1.1" x="0px" y="0px"
  viewBox="0 0 100 125" enable-background="new 0 0 100 100" xml:space="preserve">
  <path
    d="M34.7516632,48.4047585c0,5.0772858-7.7198658,5.0772858-7.7198658,0V35.2759399  c0-1.4802666,0.833374-2.7655334,2.0563965-3.4131489l13.8838711-8.7897396  c0.9847565-0.6199951,9.3586693-0.4713879,10.4001579,1.3269997l8.2048454,14.1380196l6.1453056-2.4385681  c4.70047-1.8641243,7.5347519,5.2827873,2.8345337,7.1468315l-9.2304916,3.6627579  c-1.7950516,0.7119904-3.8061371-0.0226784-4.7440109-1.6465645l-2.6973801-4.6356506l0.0002022,15.9442902l11.1183357,14.7007217  c0.4238663,0.5615311,0.6704941,1.2015076,0.7498245,1.8529434l3.1866684,17.3765945  c0.9121399,4.9782562-6.6569519,6.3648376-7.5689316,1.3870697l-3.0604095-16.6884079l-10.0602074-13.30159l-1.6095352,13.7544022  c-0.062439,0.5476227-0.2372627,1.0551605-0.4980469,1.5026245l-8.1516075,15.7550735  c-2.3203583,4.5019226-9.165596,0.9740219-6.8451977-3.5281372l7.9170017-15.3018188l2.1146584-18.0710526l0.0001183-22.6906548  l-6.4262352,4.068367V48.4047585z" />
  <circle cx="48.4542389" cy="12.538826" r="7.5387516" />
</svg>